HIERARCHY
ROOT Pelvis
{
	OFFSET 0.000000 0.941512 0.000000
	CHANNELS 6 Xposition Yposition Zposition Zrotation Yrotation Xrotation 
	JOINT Pelvis_L_Hip
	{
		OFFSET 0.000000 0.000000 0.000000
		CHANNELS 3 Zrotation Yrotation Xrotation
		JOINT L_Hip
		{
			OFFSET 0.062321 -0.080322 -0.016990
			CHANNELS 3 Zrotation Yrotation Xrotation
			JOINT L_Knee
			{
				OFFSET 0.093051 -0.381305 -0.029784
				CHANNELS 3 Zrotation Yrotation Xrotation
				JOINT L_Ankle
				{
					OFFSET -0.010371 -0.431000 -0.033614
					CHANNELS 3 Zrotation Yrotation Xrotation
					End Site #name: L_Foot
					{
						OFFSET 0.069299 -0.038670 0.119418
					}
				}
			}
		}
	}
	JOINT Pelvis_R_Hip
	{
		OFFSET 0.000000 0.000000 0.000000
		CHANNELS 3 Zrotation Yrotation Xrotation
		JOINT R_Hip
		{
			OFFSET -0.055334 -0.094904 -0.002373
			CHANNELS 3 Zrotation Yrotation Xrotation
			JOINT R_Knee
			{
				OFFSET -0.064207 -0.384370 -0.019592
				CHANNELS 3 Zrotation Yrotation Xrotation
				JOINT R_Ankle
				{
					OFFSET 0.025418 -0.419734 -0.065953
					CHANNELS 3 Zrotation Yrotation Xrotation
					End Site #name: R_Foot
					{
						OFFSET -0.057233 -0.039888 0.132134
					}
				}
			}
		}
	}
	JOINT Pelvis_Spine1
	{
		OFFSET 0.000000 0.000000 0.000000
		CHANNELS 3 Zrotation Yrotation Xrotation
		JOINT Spine1
		{
			OFFSET -0.005562 0.124093 -0.043360
			CHANNELS 3 Zrotation Yrotation Xrotation
			JOINT Spine2
			{
				OFFSET 0.012244 0.139499 0.029894
				CHANNELS 3 Zrotation Yrotation Xrotation
				JOINT Spine3
				{
					OFFSET -0.002556 0.056561 0.009225
					CHANNELS 3 Zrotation Yrotation Xrotation
					JOINT Spine3_Neck
					{
						OFFSET 0.000000 0.000000 0.000000
						CHANNELS 3 Zrotation Yrotation Xrotation
						JOINT Neck
						{
							OFFSET -0.005205 0.217920 -0.024551
							CHANNELS 3 Zrotation Yrotation Xrotation
							End Site #name: Head
							{
								OFFSET 0.002365 0.091850 0.046637
							}
						}
					}
					JOINT Spine3_L_Collar
					{
						OFFSET 0.000000 0.000000 0.000000
						CHANNELS 3 Zrotation Yrotation Xrotation
						JOINT L_Collar
						{
							OFFSET 0.072225 0.116603 -0.009480
							CHANNELS 3 Zrotation Yrotation Xrotation
							JOINT L_Shoulder
							{
								OFFSET 0.115937 -0.058643 -0.021018
								CHANNELS 3 Zrotation Yrotation Xrotation
								JOINT L_Elbow
								{
									OFFSET 0.021994 -0.254722 -0.024492
									CHANNELS 3 Zrotation Yrotation Xrotation
									End Site #name: L_Wrist
									{
										OFFSET 0.048810 -0.240214 0.103329
									}
								}
							}
						}
					}
					JOINT Spine3_R_Collar
					{
						OFFSET 0.000000 0.000000 0.000000
						CHANNELS 3 Zrotation Yrotation Xrotation
						JOINT R_Collar
						{
							OFFSET -0.073372 0.120704 -0.024611
							CHANNELS 3 Zrotation Yrotation Xrotation
							JOINT R_Shoulder
							{
								OFFSET -0.108089 -0.054969 -0.020504
								CHANNELS 3 Zrotation Yrotation Xrotation
								JOINT R_Elbow
								{
									OFFSET -0.033684 -0.260739 0.009889
									CHANNELS 3 Zrotation Yrotation Xrotation
									End Site #name: R_Wrist
									{
										OFFSET -0.067980 -0.232763 0.118463
									}
								}
							}
						}
					}
				}
			}
		}
	}
}
MOTION
Frames: 7
Frame Time: 0.041667
0.000000 0.960507 0.000000 -2.869316 -4.154296 -0.632094 0.000000 0.000000 0.000000 -5.045097 -0.911282 -4.435576 6.206855 -1.123751 8.104492 -0.162957 -12.264832 -5.704320 0.000000 0.000000 0.000000 5.942971 0.107413 -1.906574 -6.557594 0.713042 -2.558520 6.618586 24.883770 -0.538818 0.000000 0.000000 0.000000 4.747221 -0.487207 -4.192801 -7.326752 5.463566 32.675229 3.268602 2.848789 -34.528336 0.000000 0.000000 0.000000 -0.586153 -0.162725 21.952356 0.000000 0.000000 0.000000 20.754323 -4.521667 0.434247 -11.608981 0.948965 2.050092 -9.412420 -4.466699 -1.009827 0.000000 0.000000 0.000000 -17.364733 5.858867 -0.700157 14.133450 -1.227260 9.491687 7.541257 4.350123 -1.074962 
0.000370 0.960638 0.000476 -2.829298 -4.129358 -0.607056 0.000000 0.000000 0.000000 -5.080541 -0.912824 -4.446461 6.135431 -1.114042 8.119534 -0.135219 -12.282557 -5.755641 0.000000 0.000000 0.000000 5.937844 0.160729 -2.148534 -6.668169 0.787416 -2.066096 6.405192 24.814853 -0.851935 0.000000 0.000000 0.000000 4.719315 -0.486477 -4.161194 -7.281098 5.443629 32.702469 3.237762 2.814728 -34.485019 0.000000 0.000000 0.000000 -0.685457 -0.099395 22.358771 0.000000 0.000000 0.000000 20.845771 -4.554186 0.424578 -11.724107 0.950032 2.015870 -9.456331 -4.549099 -1.203621 0.000000 0.000000 0.000000 -17.364090 5.873204 -0.708908 14.168396 -1.247497 9.568363 7.518635 4.280211 -0.930492 
0.000670 0.960721 0.000998 -2.805195 -4.053942 -0.598287 0.000000 0.000000 0.000000 -5.114639 -0.907067 -4.432470 6.126083 -1.110046 8.084143 -0.141343 -12.378949 -5.782286 0.000000 0.000000 0.000000 5.969447 0.208032 -2.366630 -6.779496 0.866321 -1.549237 6.112595 24.694289 -1.272471 0.000000 0.000000 0.000000 4.661474 -0.479735 -4.131897 -7.181844 5.406630 32.817938 3.208263 2.727733 -34.407731 0.000000 0.000000 0.000000 -0.665369 -0.119421 22.843376 0.000000 0.000000 0.000000 20.889717 -4.687715 0.326433 -11.756172 0.957420 2.036356 -9.592697 -4.627584 -1.249599 0.000000 0.000000 0.000000 -17.334669 5.780646 -0.644913 14.188022 -1.237612 9.524617 7.479034 4.244988 -0.896402 
0.000856 0.960702 0.001346 -2.755213 -3.969451 -0.594510 0.000000 0.000000 0.000000 -5.166869 -0.916804 -4.473673 6.124897 -1.114423 8.143841 -0.153176 -12.506762 -5.812045 0.000000 0.000000 0.000000 6.001822 0.288902 -2.736579 -6.937018 0.985551 -0.773005 5.768490 24.552504 -1.769652 0.000000 0.000000 0.000000 4.549857 -0.486004 -3.923424 -7.082815 5.351206 32.824404 3.174649 2.617488 -34.269743 0.000000 0.000000 0.000000 -0.518286 -0.228658 23.325024 0.000000 0.000000 0.000000 20.950412 -4.819712 0.229856 -11.792812 0.958641 2.017631 -9.642428 -4.658950 -1.275285 0.000000 0.000000 0.000000 -17.359720 5.668412 -0.554973 14.249345 -1.211919 9.416944 7.501476 4.304345 -1.015349 
0.000976 0.960535 0.001532 -2.662564 -3.914450 -0.564347 0.000000 0.000000 0.000000 -5.272687 -0.944416 -4.582694 6.100709 -1.121286 8.284409 -0.102716 -12.534792 -5.902782 0.000000 0.000000 0.000000 5.993581 0.398386 -3.231341 -7.096471 1.126580 0.150589 5.395945 24.396403 -2.309117 0.000000 0.000000 0.000000 4.461271 -0.506540 -3.633218 -6.998938 5.305076 32.819600 3.077851 2.487285 -34.142163 0.000000 0.000000 0.000000 -0.351633 -0.354057 23.873400 0.000000 0.000000 0.000000 20.929024 -4.950681 0.118823 -11.788359 0.957827 2.001995 -9.543162 -4.623264 -1.309085 0.000000 0.000000 0.000000 -17.325758 5.631814 -0.528683 14.253180 -1.196887 9.357429 7.559131 4.400386 -1.177172 
0.001128 0.960455 0.002297 -2.600129 -3.842270 -0.454392 0.000000 0.000000 0.000000 -5.351767 -0.963394 -4.662184 6.097447 -1.120093 8.274533 -0.086237 -12.583708 -5.946791 0.000000 0.000000 0.000000 5.945094 0.459755 -3.509364 -7.155668 1.190864 0.579232 5.247604 24.237144 -2.487019 0.000000 0.000000 0.000000 4.420660 -0.512749 -3.529716 -6.897389 5.263858 32.911158 3.009109 2.377057 -34.076610 0.000000 0.000000 0.000000 -0.188164 -0.486632 24.652256 0.000000 0.000000 0.000000 21.040274 -5.176697 -0.042211 -11.682406 0.967530 2.080623 -9.872324 -4.714463 -1.114639 0.000000 0.000000 0.000000 -17.323861 5.577978 -0.485948 14.231619 -1.189821 9.321552 7.598012 4.448230 -1.243454 
0.000962 0.960455 0.003685 -2.600963 -3.775106 -0.288043 0.000000 0.000000 0.000000 -5.321538 -0.970653 -4.690758 6.084619 -1.108061 8.136718 -0.115301 -12.655868 -5.927309 0.000000 0.000000 0.000000 5.953559 0.456415 -3.502236 -7.170900 1.170959 0.401173 5.333708 24.153841 -2.314900 0.000000 0.000000 0.000000 4.331495 -0.495487 -3.547542 -6.793343 5.225750 33.034017 3.024559 2.348602 -34.037585 0.000000 0.000000 0.000000 -0.012736 -0.637112 25.464656 0.000000 0.000000 0.000000 21.169286 -5.302382 -0.117923 -11.512915 0.965042 2.121971 -10.305718 -4.844021 -0.891922 0.000000 0.000000 0.000000 -17.290810 5.481897 -0.420864 14.188065 -1.177291 9.264840 7.626119 4.412630 -1.115606 
